<?xml version="1.0" encoding="UTF-8"?>
<svg version="1.1" xmlns="http://www.w3.org/2000/svg" width="1080" height="1080">
<path d="M0 0 C356.4 0 712.8 0 1080 0 C1080 356.4 1080 712.8 1080 1080 C723.6 1080 367.2 1080 0 1080 C0 723.6 0 367.2 0 0 Z " fill="#FEFEFE" transform="translate(0,0)"/>
<path d="M0 0 C231.31462926 0 231.31462926 0 273 31 C273.83402344 31.61230469 274.66804688 32.22460938 275.52734375 32.85546875 C287.38889749 41.94370502 296.93051552 52.48469937 305 65 C305.36609375 65.56444824 305.7321875 66.12889648 306.109375 66.71044922 C319.84476784 88.26531162 323.33124298 112.11594375 323.5 137.25 C323.51580109 138.44186417 323.51580109 138.44186417 323.53192139 139.6578064 C323.81693933 167.46931119 314.93507254 197.12286873 296 218 C295.31550781 218.81339844 294.63101562 219.62679687 293.92578125 220.46484375 C281.87325273 234.50809512 266.02210133 245.71705396 249 253 C248.34 253 247.68 253 247 253 C247.3403125 253.4854126 247.680625 253.9708252 248.03125 254.47094727 C258.40307133 269.26837787 268.72774773 284.09824757 279.04101562 298.93652344 C286.57577726 309.77632194 294.11982195 320.60929825 301.69604492 331.42016602 C306.95078417 338.92169735 312.18168482 346.43972385 317.40820312 353.9609375 C318.34889648 355.31445312 318.34889648 355.31445312 319.30859375 356.6953125 C319.91558105 357.5709082 320.52256836 358.44650391 321.14794922 359.34863281 C322.43000714 361.18400706 323.7241459 363.01097952 325.02783203 364.83105469 C325.66962402 365.72985352 326.31141602 366.62865234 326.97265625 367.5546875 C327.554104 368.36147949 328.13555176 369.16827148 328.73461914 369.99951172 C330 372 330 372 330 374 C318.19562543 374.34852792 306.39248593 374.61454905 294.58400249 374.77718258 C289.09963683 374.85526954 283.61880559 374.96103403 278.13647461 375.1315918 C272.8387658 375.29536224 267.54443998 375.38441273 262.2443943 375.42315865 C260.22940609 375.45074162 258.21459049 375.50461659 256.20105553 375.58595085 C240.86176952 376.18055337 240.86176952 376.18055337 236.08947182 372.5442543 C232.72932697 369.03188001 230.27644752 365.09641212 227.99603653 360.82414627 C226.59284331 358.2543312 224.91216381 355.90774573 223.20703125 353.53125 C222.07308164 351.85581495 220.94158769 350.17871538 219.8125 348.5 C214.51077421 340.67109077 209.1586428 332.88045027 203.75 325.125 C199.31405661 318.76302758 194.88489654 312.39728061 190.5 306 C185.858781 299.2323046 181.18347589 292.48851312 176.5 285.75 C175.80455078 284.74839844 175.10910156 283.74679687 174.39257812 282.71484375 C173.73708984 281.77253906 173.08160156 280.83023437 172.40625 279.859375 C171.82166016 279.01858398 171.23707031 278.17779297 170.63476562 277.31152344 C169.55677091 275.7872621 168.44097763 274.28895159 167.28710938 272.82128906 C166 271 166 271 166 269 C139.6 269 113.2 269 86 269 C86 303.32 86 337.64 86 373 C57.62 373 29.24 373 0 373 C0 249.91 0 126.82 0 0 Z " fill="#000000" transform="translate(207,357)"/>
<path d="M0 0 C28.38 0 56.76 0 86 0 C86.33 57.09 86.66 114.18 87 173 C90.63 169.04 94.26 165.08 98 161 C103.25 155.75 103.25 155.75 105.73828125 153.29296875 C107.7287865 151.27496084 109.59773115 149.21690865 111.4375 147.0625 C114.30172374 143.71074881 117.36334469 140.59443922 120.5 137.5 C123.59491872 134.44662382 126.61934297 131.37676292 129.4375 128.0625 C132.93710497 123.95573465 136.75982009 120.21275194 140.59521484 116.42431641 C143.95044557 113.09433671 147.09717875 109.66077511 150.16015625 106.05859375 C152.95835792 102.92769719 155.96773656 100.01170305 158.95556641 97.06396484 C161.56120739 94.47977682 164.06053109 91.85790842 166.4375 89.0625 C169.45352827 85.523209 172.69447901 82.26505555 176 79 C179.28467991 75.75548124 182.50734004 72.52077642 185.5 69 C188.9754355 64.91125235 192.78100237 61.19183316 196.59545898 57.42407227 C199.95060894 54.0941767 203.09725452 50.66068601 206.16015625 47.05859375 C208.95766867 43.92846838 211.96624506 41.01314342 214.95336914 38.06616211 C217.58040002 35.4607863 220.10000568 32.81537795 222.5 30 C225.78031215 26.15194152 229.34805802 22.62284202 232.94433594 19.07519531 C236.18698149 15.85940397 239.24590025 12.55161399 242.171875 9.046875 C242.77515625 8.37140625 243.3784375 7.6959375 244 7 C244.67915262 6.15691489 244.67915262 6.15691489 245.37202549 5.29679775 C248.45422463 1.77665772 250.7097335 -0.42051431 255.48631287 -0.84178162 C257.19322176 -0.86187626 258.90086025 -0.84389559 260.60717773 -0.79467773 C261.54454269 -0.79569992 262.48190765 -0.79672211 263.44767761 -0.79777527 C266.5274946 -0.79292159 269.60429871 -0.73858564 272.68359375 -0.68359375 C274.82591635 -0.67052966 276.96825993 -0.66056932 279.11061096 -0.65357971 C284.73520164 -0.62691834 290.35851658 -0.55821103 295.98260498 -0.48065186 C301.72716007 -0.408902 307.47192236 -0.37704304 313.21679688 -0.34179688 C324.47842352 -0.26683943 335.73910546 -0.14744755 347 0 C346.05250991 1.10908853 345.10448946 2.21772398 344.15625 3.32617188 C343.62837891 3.94359253 343.10050781 4.56101318 342.55664062 5.19714355 C340.417331 7.67483049 338.2156566 10.09047345 336 12.5 C335.53779053 13.00281494 335.07558105 13.50562988 334.59936523 14.02368164 C330.17781611 18.82495092 325.72147996 23.59374836 321.26367188 28.36132812 C317.49416185 32.39392281 313.73974433 36.43979557 310 40.5 C305.09274273 45.82719972 300.1547795 51.12506961 295.20874023 56.41625977 C291.47816409 60.40953086 287.76372894 64.4170276 284.0625 68.4375 C278.93206325 74.00926464 273.75402436 79.53534853 268.56884766 85.05615234 C264.18445486 89.72767857 259.82748982 94.42323882 255.48828125 99.13671875 C251.08413246 103.9176931 246.64743383 108.6678447 242.20849609 113.41650391 C238.47801655 117.40970773 234.76365102 121.41711224 231.0625 125.4375 C225.93944135 131.00125187 220.7695924 136.52010006 215.59082031 142.03198242 C210.98250031 146.94066401 206.40449754 151.87615818 201.85546875 156.83984375 C199.83806861 159.0359279 197.84539932 161.13618983 195.60546875 163.109375 C195.07566406 163.73328125 194.54585937 164.3571875 194 165 C194.39483776 168.16072899 195.56913003 170.02687409 197.58984375 172.43359375 C198.1216626 173.07562744 198.65348145 173.71766113 199.20141602 174.37915039 C199.77432373 175.05840576 200.34723145 175.73766113 200.9375 176.4375 C202.13418643 177.88167513 203.32948459 179.32700166 204.5234375 180.7734375 C205.41240723 181.84803223 205.41240723 181.84803223 206.31933594 182.94433594 C208.63077905 185.77152231 210.84947669 188.65745638 213.0625 191.5625 C216.62883758 196.23682596 220.25606465 200.85333721 223.9375 205.4375 C230.13569088 213.15555378 236.2511286 220.93637256 242.35449219 228.72949219 C247.53769563 235.34563308 252.74237694 241.94277781 258 248.5 C264.1737919 256.19985311 270.26929286 263.95956573 276.35449219 271.72949219 C281.53769563 278.34563308 286.74237694 284.94277781 292 291.5 C298.1737919 299.19985311 304.26929286 306.95956573 310.35449219 314.72949219 C315.53769563 321.34563308 320.74237694 327.94277781 326 334.5 C330.78689921 340.47014304 335.53379456 346.46997403 340.25 352.49609375 C342.17606633 354.95586415 344.11537189 357.40452675 346.0625 359.84765625 C346.81551392 360.79596313 346.81551392 360.79596313 347.58374023 361.76342773 C348.54396174 362.97222565 349.50686564 364.17889942 350.47290039 365.38305664 C352.66957804 368.15516167 354.48594625 370.81057649 356 374 C343.02197144 374.32513928 330.04491932 374.57350949 317.06363964 374.72537041 C311.03485433 374.79827943 305.00886524 374.89706291 298.98168945 375.05615234 C293.1588604 375.20887669 287.33871035 375.29209762 281.51403236 375.3282814 C279.2981988 375.35404584 277.08250351 375.40436572 274.86781883 375.48022079 C257.99276604 376.03493753 257.99276604 376.03493753 253.03485489 372.66379547 C249.69148146 369.46541465 247.34992673 365.82913482 245.10103798 361.81425858 C243.23685857 358.7425176 240.87761294 356.1887874 238.5 353.5 C234.73215584 349.11022513 231.10772125 344.63370219 227.5625 340.0625 C223.83421502 335.2583385 219.98646023 330.59206346 216 326 C211.52812239 320.84877697 207.26133074 315.5779397 203.08081055 310.18847656 C199.47453917 305.55695011 195.72016353 301.07032206 191.90942383 296.60644531 C188.60121437 292.72667277 185.39080657 288.78340397 182.22265625 284.7890625 C179.3585319 281.19506463 176.46171709 277.62821331 173.5625 274.0625 C172.99966309 273.37027344 172.43682617 272.67804688 171.85693359 271.96484375 C166.5437018 265.43402848 161.21736092 258.91396383 155.87109375 252.41015625 C153.57423111 249.61201053 151.28592582 246.80708816 149 244 C148.48373047 243.36884277 147.96746094 242.73768555 147.43554688 242.08740234 C145.7644407 240.04151885 144.10037871 237.99007381 142.4375 235.9375 C141.90020264 235.28168945 141.36290527 234.62587891 140.80932617 233.95019531 C137 229.22804379 137 229.22804379 137 227 C133.89093818 229.26113587 131.34768846 231.67274852 128.87890625 234.59375 C124.09889625 240.11681547 118.87704673 245.17122587 113.671875 250.2890625 C109.64831279 254.27156796 105.7769204 258.27251618 102.19096375 262.65559387 C100.441883 264.52717008 98.85247976 265.93459271 96.84236145 267.47587585 C91.49427666 271.77928327 87.03161197 275.87454322 85.81381226 282.87197876 C85.24203203 288.66931946 85.378453 294.45362755 85.51171875 300.26953125 C85.51353093 302.40329757 85.50959512 304.53707575 85.50019836 306.67082214 C85.49088803 312.24686362 85.55888313 317.81929604 85.64379883 323.39459229 C85.72959888 330.10509104 85.71796654 336.81606377 85.72293854 343.52701569 C85.74123875 353.68696163 85.88213544 363.83852949 86 374 C57.62 374 29.24 374 0 374 C0 250.58 0 127.16 0 0 Z " fill="#010101" transform="translate(567,357)"/>
<path d="M0 0 C12.890625 -0.0825 25.78125 -0.165 39.0625 -0.25 C45.09156616 -0.30462402 45.09156616 -0.30462402 51.24243164 -0.36035156 C81.21908279 -0.51857493 111.46800712 -0.23092582 134.67578125 21.51953125 C147.24801294 34.93695499 150.57801187 52.14332959 150.18359375 69.921875 C149.57523122 86.351442 143.1978883 101.94017102 131.10546875 113.28515625 C123.82646352 119.21369669 116.06506169 123.31193634 107.25 126.375 C106.58508545 126.61355713 105.9201709 126.85211426 105.23510742 127.09790039 C91.30264533 131.59156196 76.0926724 131.28679934 61.62109375 131.1953125 C60.02999004 131.19236026 58.43888437 131.19032713 56.84777832 131.18920898 C51.04432198 131.17885841 45.24090761 131.15093727 39.4375 131.125 C19.9159375 131.063125 19.9159375 131.063125 0 131 C0 87.77 0 44.54 0 0 Z " fill="#F8F8F8" transform="translate(293,427)"/>
</svg>
