<?xml version="1.0" encoding="UTF-8"?>
<svg version="1.1" xmlns="http://www.w3.org/2000/svg" width="1080" height="1080">
<path d="M0 0 C356.4 0 712.8 0 1080 0 C1080 356.4 1080 712.8 1080 1080 C723.6 1080 367.2 1080 0 1080 C0 723.6 0 367.2 0 0 Z " fill="#000000" transform="translate(0,0)"/>
<path d="M0 0 C231.31462926 0 231.31462926 0 273 31 C273.83402344 31.61230469 274.66804688 32.22460938 275.52734375 32.85546875 C287.42355419 41.97025874 296.83598772 52.5123561 305 65 C305.63679688 65.95261719 306.27359375 66.90523438 306.9296875 67.88671875 C317.77490386 85.16676348 323.03405607 106.18347933 323.23828125 126.4609375 C323.246353 127.2503775 323.25442474 128.0398175 323.26274109 128.85317993 C323.27649017 130.51879749 323.28725278 132.18444214 323.29516602 133.85009766 C323.30659969 135.51554926 323.32691217 137.18096677 323.35668945 138.84619141 C323.85825843 167.01811568 315.22865625 196.79917388 296 218 C295.31550781 218.81339844 294.63101562 219.62679687 293.92578125 220.46484375 C281.87325273 234.50809512 266.02210133 245.71705396 249 253 C248.34 253 247.68 253 247 253 C254.65122669 264.01081349 262.30490324 275.01978347 270 286 C275.69854672 294.13146929 281.37188402 302.28023927 287.0390625 310.43359375 C291.91001642 317.43911629 296.79870928 324.43199554 301.69555664 331.41943359 C306.95041328 338.9212409 312.18151735 346.43948285 317.40820312 353.9609375 C318.34889648 355.31445312 318.34889648 355.31445312 319.30859375 356.6953125 C319.91558105 357.5709082 320.52256836 358.44650391 321.14794922 359.34863281 C322.43000714 361.18400706 323.7241459 363.01097952 325.02783203 364.83105469 C325.66962402 365.72985352 326.31141602 366.62865234 326.97265625 367.5546875 C327.554104 368.36147949 328.13555176 369.16827148 328.73461914 369.99951172 C330 372 330 372 330 374 C318.14336665 374.2552116 306.28738958 374.45048988 294.42856598 374.56993389 C288.92144053 374.62727203 283.41619793 374.70499411 277.91015625 374.82983398 C272.59317128 374.94962864 267.27799315 375.01518014 261.95976257 375.04364967 C259.9341741 375.06392808 257.90868134 375.10353201 255.88386536 375.16303062 C240.00699388 375.61088208 240.00699388 375.61088208 235.02270508 371.61032104 C232.96565478 368.81527583 231.45885854 366.13975002 230 363 C229.15212291 361.72631346 228.28355195 360.46551525 227.375 359.234375 C226.58198674 358.07383567 225.7903498 356.91235484 225 355.75 C220.36806396 348.97562668 215.69147778 342.23326178 211 335.5 C206.05151486 328.39548802 201.11853649 321.28127583 196.22485352 314.13891602 C193.54001108 310.22557744 190.83650614 306.3257943 188.12109375 302.43359375 C187.43015625 301.44294922 186.73921875 300.45230469 186.02734375 299.43164062 C184.68888007 297.51400996 183.34915329 295.59725991 182.0078125 293.68164062 C181.05841797 292.32135742 181.05841797 292.32135742 180.08984375 290.93359375 C179.46004105 290.05803833 178.83023834 289.18248291 178.18135071 288.28039551 C176.5991777 285.90106549 175.32248278 283.72903861 174.06266785 281.19848633 C170.35240142 273.96506984 170.35240142 273.96506984 164.08785057 269.14642525 C158.63792138 267.82326886 153.08685792 268.12672816 147.5234375 268.31640625 C145.94506317 268.31859068 144.36666477 268.31400907 142.78833008 268.3026123 C136.98324239 268.30754022 131.17885285 268.44266892 125.375 268.5625 C112.38125 268.706875 99.3875 268.85125 86 269 C86 303.65 86 338.3 86 374 C57.62 374 29.24 374 0 374 C0 250.58 0 127.16 0 0 Z " fill="#FEFEFE" transform="translate(207,357)"/>
<path d="M0 0 C28.38 0 56.76 0 86 0 C86.33 57.09 86.66 114.18 87 173 C90.63 169.04 94.26 165.08 98 161 C103.25 155.75 103.25 155.75 105.73828125 153.29296875 C107.7287865 151.27496084 109.59773115 149.21690865 111.4375 147.0625 C114.30172374 143.71074881 117.36334469 140.59443922 120.5 137.5 C123.59491872 134.44662382 126.61934297 131.37676292 129.4375 128.0625 C132.45352827 124.523209 135.69447901 121.26505555 139 118 C142.28467991 114.75548124 145.50734004 111.52077642 148.5 108 C151.9754355 103.91125235 155.78100237 100.19183316 159.59545898 96.42407227 C162.95060894 93.0941767 166.09725452 89.66068601 169.16015625 86.05859375 C171.95835792 82.92769719 174.96773656 80.01170305 177.95556641 77.06396484 C180.56120739 74.47977682 183.06053109 71.85790842 185.4375 69.0625 C188.93710497 64.95573465 192.75982009 61.21275194 196.59521484 57.42431641 C199.95044557 54.09433671 203.09717875 50.66077511 206.16015625 47.05859375 C208.95766867 43.92846838 211.96624506 41.01314342 214.95336914 38.06616211 C217.58040002 35.4607863 220.10000568 32.81537795 222.5 30 C225.78031215 26.15194152 229.34805802 22.62284202 232.94433594 19.07519531 C236.18698149 15.85940397 239.24590025 12.55161399 242.171875 9.046875 C242.77515625 8.37140625 243.3784375 7.6959375 244 7 C244.67915262 6.15691489 244.67915262 6.15691489 245.37202549 5.29679775 C248.45422463 1.77665772 250.7097335 -0.42051431 255.48631287 -0.84178162 C257.19322176 -0.86187626 258.90086025 -0.84389559 260.60717773 -0.79467773 C261.54454269 -0.79569992 262.48190765 -0.79672211 263.44767761 -0.79777527 C266.5274946 -0.79292159 269.60429871 -0.73858564 272.68359375 -0.68359375 C274.82591635 -0.67052966 276.96825993 -0.66056932 279.11061096 -0.65357971 C284.73520164 -0.62691834 290.35851658 -0.55821103 295.98260498 -0.48065186 C301.72716007 -0.408902 307.47192236 -0.37704304 313.21679688 -0.34179688 C324.47842352 -0.26683943 335.73910546 -0.14744755 347 0 C346.05250991 1.10908853 345.10448946 2.21772398 344.15625 3.32617188 C343.62837891 3.94359253 343.10050781 4.56101318 342.55664062 5.19714355 C340.417331 7.67483049 338.2156566 10.09047345 336 12.5 C335.53779053 13.00281494 335.07558105 13.50562988 334.59936523 14.02368164 C330.17711556 18.82571163 325.72017782 23.59536629 321.26147461 28.36352539 C317.5126291 32.37376392 313.78033067 36.39850697 310.0625 40.4375 C304.93210041 46.00929845 299.75402394 51.53534897 294.56884766 57.05615234 C290.18445486 61.72767857 285.82748982 66.42323882 281.48828125 71.13671875 C277.67662115 75.2745102 273.84175806 79.39015142 270 83.5 C265.65121839 88.15258516 261.31493032 92.81600113 257 97.5 C249.77494994 105.34138223 242.49009835 113.12673229 235.20898438 120.91601562 C229.12231316 127.42842122 223.04037084 133.94459003 217 140.5 C212.49447247 145.3893176 207.97185877 150.2624043 203.4375 155.125 C202.84130859 155.76501953 202.24511719 156.40503906 201.63085938 157.06445312 C201.07076172 157.66451172 200.51066406 158.26457031 199.93359375 158.8828125 C199.43915771 159.41277832 198.94472168 159.94274414 198.43530273 160.48876953 C197 162 197 162 195.25415039 163.44482422 C193.76763637 164.92469094 193.76763637 164.92469094 194.15063477 166.97290039 C195.06096545 169.14550046 196.07677431 170.6314909 197.58984375 172.43359375 C198.1216626 173.07562744 198.65348145 173.71766113 199.20141602 174.37915039 C199.77432373 175.05840576 200.34723145 175.73766113 200.9375 176.4375 C202.13418643 177.88167513 203.32948459 179.32700166 204.5234375 180.7734375 C205.41240723 181.84803223 205.41240723 181.84803223 206.31933594 182.94433594 C208.63077905 185.77152231 210.84947669 188.65745638 213.0625 191.5625 C216.62883758 196.23682596 220.25606465 200.85333721 223.9375 205.4375 C230.13569088 213.15555378 236.2511286 220.93637256 242.35449219 228.72949219 C247.53769563 235.34563308 252.74237694 241.94277781 258 248.5 C264.1737919 256.19985311 270.26929286 263.95956573 276.35449219 271.72949219 C281.53769563 278.34563308 286.74237694 284.94277781 292 291.5 C298.1737919 299.19985311 304.26929286 306.95956573 310.35449219 314.72949219 C315.53769563 321.34563308 320.74237694 327.94277781 326 334.5 C330.78575852 340.46872039 335.53181994 346.46686882 340.24609375 352.4921875 C342.18338045 354.9664814 344.13613014 357.42769376 346.09765625 359.8828125 C346.85743774 360.83788696 346.85743774 360.83788696 347.63256836 361.81225586 C348.60529598 363.03449058 349.58122157 364.25418909 350.56079102 365.47094727 C352.55107067 367.97873639 353.97842231 369.93526692 355 373 C342.1174446 373.23204606 329.23538896 373.40955731 316.35116673 373.51812172 C310.36787998 373.57023743 304.38602637 373.64088309 298.40356445 373.75439453 C292.62626582 373.86332293 286.85034239 373.92289843 281.07209587 373.94877243 C278.87156465 373.96720203 276.67110592 374.00319364 274.4711628 374.05730057 C257.25560184 374.4637414 257.25560184 374.4637414 251.73434448 370.88079834 C249.43118918 368.3606023 247.73413278 365.93057734 246 363 C244.68746172 361.33753545 243.35645058 359.68933341 242 358.0625 C241.34386719 357.23105469 240.68773437 356.39960937 240.01171875 355.54296875 C237.97175167 352.96429192 235.89830173 350.41671468 233.8125 347.875 C230.02830684 343.26076792 226.26108777 338.63308243 222.5 334 C217.34784795 327.654718 212.18051989 321.32215297 207 315 C204.74450597 312.24372321 202.48944257 309.48709445 200.234375 306.73046875 C198.78702949 304.96177205 197.33914699 303.19351457 195.890625 301.42578125 C190.84674935 295.26820312 185.82403544 289.09370109 180.80664062 282.91455078 C176.21819393 277.26505941 171.61344805 271.62909519 167 266 C160.1467741 257.63804153 153.31623558 249.2579584 146.50976562 240.85791016 C145.142404 239.17524167 143.76808565 237.49862025 142.390625 235.82421875 C141.66359375 234.93347656 140.9365625 234.04273438 140.1875 233.125 C139.56230469 232.36445312 138.93710937 231.60390625 138.29296875 230.8203125 C137 229 137 229 137 227 C133.90304336 229.2523321 131.36737383 231.65134912 128.91015625 234.5625 C123.92299046 240.32492376 118.45539662 245.59129211 113.02734375 250.93359375 C108.86057314 255.06023494 104.82258441 259.19152 101.11114502 263.7354126 C99 266 99 266 96.0668335 268.25140381 C90.93371255 272.2967946 86.99076594 276.12594471 85.90283203 282.78295898 C85.36678427 288.5768632 85.49159296 294.36139357 85.609375 300.171875 C85.60931858 302.30707437 85.60396304 304.44227955 85.59356689 306.57745361 C85.58045545 312.16146668 85.63870194 317.74247673 85.71246338 323.32592773 C85.78611073 330.04400275 85.76999845 336.76240514 85.76914978 343.48080444 C85.77780534 353.65575302 85.8995504 363.82368255 86 374 C57.62 374 29.24 374 0 374 C0 250.58 0 127.16 0 0 Z " fill="#FEFEFE" transform="translate(567,357)"/>
<path d="M0 0 C12.973125 -0.061875 25.94625 -0.12375 39.3125 -0.1875 C43.36829346 -0.21481201 47.42408691 -0.24212402 51.6027832 -0.27026367 C56.65856934 -0.28381348 56.65856934 -0.28381348 59.04533386 -0.28633118 C60.66869088 -0.2908577 62.29203957 -0.30123552 63.91532898 -0.31672668 C88.78617781 -0.54164729 114.7092927 2.84343862 133.71142578 20.40869141 C145.20155795 31.76271144 150.01731236 47.18115611 150.19067383 63.10058594 C150.16316831 81.72816955 145.66951924 97.56369667 132.875 111.625 C125.47497215 118.56763098 116.74670793 123.07507744 107.25 126.375 C106.58508545 126.61355713 105.9201709 126.85211426 105.23510742 127.09790039 C91.30264533 131.59156196 76.0926724 131.28679934 61.62109375 131.1953125 C60.02999004 131.19236026 58.43888437 131.19032713 56.84777832 131.18920898 C51.04432198 131.17885841 45.24090761 131.15093727 39.4375 131.125 C19.9159375 131.063125 19.9159375 131.063125 0 131 C0 87.77 0 44.54 0 0 Z " fill="#010101" transform="translate(293,427)"/>
</svg>
